<svg enable-background="new 0 0 48 48" height="240" viewBox="0 0 48 48" width="240" xmlns="http://www.w3.org/2000/svg"><path d="m29.4 21s-6.7-13.7-9.7-14.9c-1.9-.7-3.5 6.2-.8 10.4 2.2 3.6 9.1 5.8 9.1 5.8.1 0 .1.1.2.1.5.2 1.1-.1 1.3-.6.1-.2.1-.5-.1-.8z" fill="#42a5f5"/><g fill="#5d4037"><path d="m29.5 31.9c.1-.2.2-.4.2-.6.2-.6.3-1.2.3-1.8 0-2.7-1.7-5-4-6-3.6-2.2-6.4-.2-8 2.5-.2.3-.4.6-.5 1-3.9 8.4 1.7 14.1 2.5 15 1.4-5.1 6.9-4.3 9.3-9.8.1-.1.2-.2.2-.3z"/><path d="m35 14c-.2 0-.3 0-.4-.1-.5-.2-.7-.8-.4-1.3l1.2-2.4 5.4-1.2c.5-.1 1.1.2 1.2.8.1.5-.2 1.1-.8 1.2l-4.5.9-.8 1.6c-.2.3-.5.5-.9.5z"/><path d="m33 13c-.4 0-.8-.3-.9-.7l-1.3-3.9 6.9-2.3c.5-.2 1.1.1 1.3.6s-.1 1.1-.6 1.3l-5.1 1.7.7 2.1c.2.5-.1 1.1-.6 1.3-.2-.1-.3-.1-.4-.1z"/></g><path d="m26.8 35.6c.2-.2.4-.3.6-.5-2.1.5-4.3.5-6.3.2-1.1-.2-2.2-.5-3.3-.8-.5-.2-1.1-.4-1.6-.6.1 1.3.4 2.5.8 3.6h.2c1.3.1 2.6 0 3.8-.1 2-.4 4-1 5.8-1.8z" fill="#ffc107"/><path d="m18.7 24.9c.4.5.9 1 1.4 1.5 1.1 1.1 2.3 2 3.6 2.7 1.3.8 2.7 1.3 4.1 1.6.7.1 1.4.2 2 .3 0-.2.1-.3.1-.5-1.9-.6-3.7-1.6-5.1-3-.9-.9-1.7-1.9-2.4-3-.3-.5-.6-1.1-.9-1.7 0 0 0 0 0-.1-1.1.4-2 1.2-2.8 2.2z" fill="#ffc107"/><path d="m22.8 31.3c-1.2-.6-2.4-1.4-3.5-2.2-.7-.5-1.4-1.1-2-1.7-.5 1.2-.9 2.4-1 3.5.5.3 1 .5 1.5.7 1.4.6 2.9 1.1 4.3 1.5 2.1.5 4.4.7 6.5.4.1-.2.2-.3.3-.5-2.1-.1-4.2-.8-6.1-1.7z" fill="#ffc107"/><path d="m32.8 25.8c-2.1 2.1-4.7 1.3-6.8-.8s-2.8-4.7-.8-6.8c2.1-2.1 4.7-1.3 6.8.8s2.8 4.7.8 6.8z" fill="#795548"/><path d="m37.8 18.9c-.9 2-4.8 1.1-7.4-.1-2-.9-2.9-3.3-2-5.4s3.1-2.6 5.2-2.1c2.5.7 5.1 5.5 4.2 7.6z" fill="#8d6e63"/><path d="m32.6 19.6c-.8-.2-1.5-.5-2.2-.8-.8-.4-1.4-1-1.8-1.7-.7-.1-2.2 0-2.9.9.6 1.4.8 3.5 2.3 4.1 2.9 1.1 4.8.7 5.9 0-.3-.9-.7-1.7-1.3-2.5z" fill="#4e342e"/><path d="m35.4 17.3c-.5.7-2 .5-3.5-.6s-2.3-2.6-1.8-3.3 2-.5 3.5.6 2.3 2.6 1.8 3.3z" fill="#3e2723"/><path d="m28.6 20.2s-16.4-14.2-19.6-14.2c-2 0-1 7 3 10 3.4 2.5 15.8 6 15.8 6 .1 0 .2.1.2.1.6 0 1-.4 1-1 0-.4-.2-.7-.4-.9z" fill="#90caf9"/></svg>